<svg xmlns="http://www.w3.org/2000/svg" width="90" height="62.707" viewBox="0 0 90 62.707">
  <g id="Group_192" data-name="Group 192" transform="translate(-168 -1428)">
    <g id="Union_2" data-name="Union 2" transform="translate(168 1428)" fill="none">
      <path d="M37.834,62.66C17.83,62.66,0,64.37,0,47.2S17.83,9.137,37.834,9.137a30.776,30.776,0,0,1,19.889,7.638c4.92-1.578,9.468-3.874,13.25-5.071A7.317,7.317,0,1,1,84.146,7.317a7.363,7.363,0,0,1-.171,1.577,7.318,7.318,0,1,1-7.437,11.178c-2.9,1.04-6.464,2.11-8.01,4.99a13.426,13.426,0,0,0-1.193,3.552,39.352,39.352,0,0,1,5.1,18.581c0,14.321-10.156,15.511-25.127,15.512C44.328,62.707,41.157,62.66,37.834,62.66Z" stroke="none"/>
      <path d="M 47.31134414672852 59.70676422119141 C 55.00678634643555 59.7066764831543 60.51725769042969 59.35587692260742 64.20585632324219 57.60984802246094 C 65.95726013183594 56.78080749511719 67.16233062744141 55.69693374633789 67.99829864501953 54.19880676269531 C 68.95417022705078 52.48580551147461 69.4388427734375 50.12946319580078 69.4388427734375 47.19522094726563 C 69.4388427734375 41.68606185913086 67.7589111328125 35.60111999511719 64.70854187011719 30.06130599975586 L 64.17040252685547 29.08399200439453 L 64.401611328125 27.99253463745117 C 64.78004455566406 26.20626258850098 65.25171661376953 24.82406234741211 65.885986328125 23.64277648925781 C 67.86566925048828 19.95547676086426 71.75455474853516 18.5816764831543 74.87931060791016 17.47781944274902 C 75.09786987304688 17.40060615539551 75.31388854980469 17.32430648803711 75.52628326416016 17.2481632232666 L 77.76352691650391 16.44609260559082 L 79.05618286132813 18.44049263000488 C 79.85746765136719 19.67677688598633 81.21330261230469 20.41486358642578 82.68301391601563 20.41486358642578 C 85.06341552734375 20.41486358642578 87 18.47797775268555 87 16.09723472595215 C 87 14.0016918182373 85.50664520263672 12.21446323394775 83.44912719726563 11.84759140014648 L 80.37722778320313 11.2998628616333 L 81.04530334472656 8.251877784729004 C 81.11231231689453 7.946134567260742 81.14628601074219 7.631591796875 81.14628601074219 7.316977500915527 C 81.14628601074219 4.936591625213623 79.20970153808594 3.000005960464478 76.82929992675781 3.000005960464478 C 74.44889831542969 3.000005960464478 72.51231384277344 4.936591625213623 72.51231384277344 7.316977500915527 C 72.51231384277344 8.25927734375 72.80982971191406 9.153820037841797 73.37268829345703 9.903934478759766 L 75.91191101074219 13.28789138793945 L 71.87845611572266 14.56463432312012 C 70.21456909179688 15.0913200378418 68.30709838867188 15.88137722015381 66.28762817382813 16.71782112121582 C 63.97389984130859 17.67616271972656 61.35144424438477 18.76234817504883 58.63898468017578 19.63217735290527 L 57.06004333496094 20.13852119445801 L 55.79131317138672 19.0709056854248 C 50.40077209472656 14.53482055664063 44.1912841796875 12.13717746734619 37.83415603637695 12.13717746734619 C 33.49917221069336 12.13717746734619 29.11969947814941 13.22004890441895 24.81742858886719 15.35570621490479 C 20.80318641662598 17.34839248657227 16.92314338684082 20.26337814331055 13.59678554534912 23.78554916381836 C 10.36349964141846 27.20917701721191 7.677971363067627 31.17099189758301 5.830514430999756 35.24269104003906 C 3.978771448135376 39.32382202148438 3 43.45693588256836 3 47.19522094726563 C 3 50.06643295288086 3.550857067108154 52.29370498657227 4.684057235717773 54.00433349609375 C 5.688485622406006 55.52056503295898 7.200971603393555 56.67977905273438 9.307929039001465 57.54823303222656 C 14.14019966125488 59.53997802734375 21.55154228210449 59.70676422119141 28.11899948120117 59.70676422119141 C 29.65011405944824 59.70676422119141 31.18532943725586 59.69560623168945 32.8106575012207 59.68377685546875 C 34.44624328613281 59.67189025878906 36.13751602172852 59.65959167480469 37.83415603637695 59.65959167480469 C 39.55105590820313 59.65959167480469 41.22738647460938 59.6721076965332 42.84852981567383 59.68421936035156 C 44.4026985168457 59.69581985473633 45.87067031860352 59.7067756652832 47.31132888793945 59.70676422119141 L 47.31134414672852 59.70676422119141 M 28.1190013885498 62.70676422119141 C 12.39955997467041 62.70677947998047 0 61.51752090454102 0 47.19522094726563 C 0 30.02063369750977 17.83049964904785 9.137177467346191 37.83415603637695 9.137177467346191 C 45.40364456176758 9.137177467346191 52.19889831542969 12.12709140777588 57.722900390625 16.77547836303711 C 62.64247131347656 15.19786357879639 67.19136810302734 12.90157699584961 70.97311401367188 11.70450592041016 C 70.05587005615234 10.48212051391602 69.51231384277344 8.963048934936523 69.51231384277344 7.316977500915527 C 69.51231384277344 3.276206016540527 72.78852844238281 6.005859177093953e-06 76.82929992675781 6.005859177093953e-06 C 80.8707275390625 6.005859177093953e-06 84.14628601074219 3.276206016540527 84.14628601074219 7.316977500915527 C 84.14628601074219 7.858291625976563 84.08701324462891 8.386448860168457 83.97573089599609 8.894177436828613 C 87.39944458007813 9.504634857177734 90 12.49767780303955 90 16.09723472595215 C 90 20.13866233825684 86.72378540039063 23.41486358642578 82.68301391601563 23.41486358642578 C 80.10746765136719 23.41486358642578 77.84264373779297 22.08396339416504 76.53871154785156 20.07216262817383 C 73.63838195800781 21.11196327209473 70.07515716552734 22.18229103088379 68.52912902832031 25.06186294555664 C 67.97154235839844 26.10033416748047 67.61060333251953 27.32034873962402 67.33648681640625 28.61427688598633 C 70.60066986083984 34.54237747192383 72.4388427734375 41.10277557373047 72.4388427734375 47.19522094726563 C 72.4388427734375 61.51646423339844 62.28281402587891 62.70660781860352 47.31137084960938 62.70676422119141 C 44.32848739624023 62.70680618286133 41.15739822387695 62.65959167480469 37.83415603637695 62.65959167480469 C 34.51201629638672 62.65959167480469 31.24954414367676 62.70676040649414 28.1190013885498 62.70676422119141 Z" stroke="none" fill="#d30215"/>
    </g>
    <g id="Path_325" data-name="Path 325" transform="translate(254.081 1461.225) rotate(163)" fill="none">
      <path d="M24.876,0C36.634,0,43.309,4.832,43.309,14.927c0,6.986-4.634,9.388-11.185,9.761-2.738.156-5.534-.671-9.156-.671C11.21,24.017,0,28.477,0,18.382c0-5.3,9.868-.95,14.4-5.444C18.336,9.032,19.291,0,24.876,0Z" stroke="none"/>
      <path d="M 24.87578964233398 2.999996185302734 C 24.41448974609375 2.999996185302734 23.88126945495605 3.131355285644531 23.10974884033203 4.08427619934082 C 22.25938034057617 5.134586334228516 21.50074005126953 6.71153450012207 20.69755935668945 8.381074905395508 C 19.55103874206543 10.76428604125977 18.3654899597168 13.22864532470703 16.51133918762207 15.06810569763184 C 13.54011917114258 18.01522445678711 9.419620513916016 18.19199562072754 6.108737945556641 18.33403396606445 C 5.208080291748047 18.3726749420166 4.357368469238281 18.40916442871094 3.673839569091797 18.499755859375 C 3.370738983154297 18.5399284362793 3.153949737548828 18.58430480957031 3.002792358398438 18.62318229675293 C 3.050464630126953 20.64329719543457 3.694698333740234 21.1026611328125 3.911830902099609 21.25746536254883 C 4.601551055908203 21.74921607971191 5.937938690185547 21.99855422973633 7.883880615234375 21.99855422973633 C 9.681560516357422 21.99855422973633 11.82968902587891 21.79174423217773 14.10396003723145 21.57278442382813 C 16.80900955200195 21.3123664855957 19.87496948242188 21.01718521118164 22.96842956542969 21.01718521118164 C 24.92358016967773 21.01718521118164 26.63458061218262 21.23186492919922 28.1441593170166 21.4212646484375 C 29.37027931213379 21.57510566711426 30.42918968200684 21.70796585083008 31.41403007507324 21.70796585083008 C 31.60031890869141 21.70796585083008 31.7818603515625 21.70299530029297 31.9538688659668 21.69318580627441 C 34.87107086181641 21.52705574035645 37.0212287902832 20.92687606811523 38.34460830688477 19.90929412841797 C 39.18798828125 19.26080513000488 40.30921936035156 18.03879547119141 40.30921936035156 14.92709541320801 C 40.30921936035156 10.88337516784668 39.11114120483398 7.974864959716797 36.64653015136719 6.035385131835938 C 34.08705139160156 4.021245956420898 30.12680053710938 2.999996185302734 24.87578964233398 2.999996185302734 M 24.87578964233398 -3.814697265625e-06 C 36.63381958007813 -3.814697265625e-06 43.30921936035156 4.83183479309082 43.30921936035156 14.92709541320801 C 43.30921936035156 21.91295623779297 38.67496871948242 24.3152961730957 32.12443923950195 24.68833541870117 C 31.88826370239258 24.70180702209473 31.65155601501465 24.70796394348145 31.41403198242188 24.70796394348145 C 28.89743041992188 24.70796394348145 26.27763748168945 24.01718521118164 22.96842956542969 24.01718521118164 C 17.45327949523926 24.01718521118164 12.05769538879395 24.99855422973633 7.883876800537109 24.99855422973633 C 3.159339904785156 24.99855422973633 0 23.74181175231934 0 18.38178634643555 C 0 13.08181571960449 9.86798095703125 17.43211555480957 14.3986701965332 12.93816566467285 C 18.33600044250488 9.032035827636719 19.29069900512695 -3.814697265625e-06 24.87578964233398 -3.814697265625e-06 Z" stroke="none" fill="#d30215"/>
    </g>
    <g id="Group_206" data-name="Group 206" transform="translate(197.037 1470.43) rotate(-71)">
      <path id="Path_329" data-name="Path 329" d="M27.419,24.094,24.952,23.6c1.357-6.91,5.552-11.969,10.735-13.326l.617,2.468C31.985,13.729,28.53,18.171,27.419,24.094Z" transform="translate(-24.952 -10.274)" fill="#d30215" stroke="#d30215" stroke-width="0.7"/>
    </g>
  </g>
</svg>
