<svg xmlns="http://www.w3.org/2000/svg" xmlns:xlink="http://www.w3.org/1999/xlink" width="111.599" height="110.493" viewBox="0 0 111.599 110.493">
  <defs>
    <clipPath id="clip-path">
      <rect id="Rectangle_1207" data-name="Rectangle 1207" width="77" height="82" transform="translate(1005 1515)" fill="#d30215" stroke="#d30215" stroke-width="0.7"/>
    </clipPath>
  </defs>
  <g id="Mask_Group_64" data-name="Mask Group 64" transform="matrix(0.588, -0.809, 0.809, 0.588, -1816.385, -15.138)" clip-path="url(#clip-path)">
    <g id="iconfinder_SMOOTHIE_1188702" transform="translate(1014.871 1518)">
      <g id="Group_204" data-name="Group 204" transform="translate(0 0)">
        <g id="Group_197" data-name="Group 197" transform="translate(0 23.444)">
          <path id="Path_326" data-name="Path 326" d="M66.266,37.992H16.911a3.377,3.377,0,0,1-3.7-3.7V33.056a3.377,3.377,0,0,1,3.7-3.7H66.266a3.377,3.377,0,0,1,3.7,3.7V34.29A3.377,3.377,0,0,1,66.266,37.992ZM16.911,31.823c-.987,0-1.234.247-1.234,1.234V34.29c0,.987.247,1.234,1.234,1.234H66.266c.987,0,1.234-.247,1.234-1.234V33.056c0-.987-.247-1.234-1.234-1.234Z" transform="translate(-13.21 -29.355)" fill="#d30215" stroke="#d30215" stroke-width="0.7"/>
        </g>
        <g id="Group_198" data-name="Group 198" transform="translate(4.935 30.6)">
          <path id="Path_327" data-name="Path 327" d="M56.1,83.768H28.952a2.369,2.369,0,0,1-2.468-2.344l-7.4-43.062,2.468-.37,7.4,43.309H56.1v-.247l7.4-43.185,2.468.37L58.565,81.3A2.4,2.4,0,0,1,56.1,83.768Z" transform="translate(-19.081 -37.868)" fill="#d30215" stroke="#d30215" stroke-width="0.7"/>
        </g>
        <g id="Group_199" data-name="Group 199" transform="translate(3.702)">
          <path id="Path_328" data-name="Path 328" d="M66.968,26.145H64.5a22.21,22.21,0,1,0-44.419,0H17.613a24.677,24.677,0,1,1,49.355,0Z" transform="translate(-17.613 -1.468)" fill="#d30215" stroke="#d30215" stroke-width="0.7"/>
        </g>
        <g id="Group_200" data-name="Group 200" transform="translate(39.585 0.766)">
          <rect id="Rectangle_1208" data-name="Rectangle 1208" width="25.417" height="2.468" transform="translate(0 23.425) rotate(-67.163)" fill="#d30215" stroke="#d30215" stroke-width="0.7"/>
        </g>
      </g>
      <g id="Group_205" data-name="Group 205" transform="translate(9.871 7.403)">
        <path id="Path_329" data-name="Path 329" d="M27.419,24.094,24.952,23.6c1.357-6.91,5.552-11.969,10.735-13.326l.617,2.468C31.985,13.729,28.53,18.171,27.419,24.094Z" transform="translate(-24.952 -10.274)" fill="#d30215" stroke="#d30215" stroke-width="0.7"/>
      </g>
    </g>
  </g>
</svg>
