<svg xmlns="http://www.w3.org/2000/svg" xmlns:xlink="http://www.w3.org/1999/xlink" width="103.826" height="103.826" viewBox="0 0 103.826 103.826">
  <defs>
    <clipPath id="clip-path">
      <rect id="Rectangle_1209" data-name="Rectangle 1209" width="75.663" height="75.663" transform="translate(1101 1627)" fill="#d30215" stroke="#707070" stroke-width="1"/>
    </clipPath>
  </defs>
  <g id="Mask_Group_65" data-name="Mask Group 65" transform="translate(-66.805 -1961.668) rotate(31)" clip-path="url(#clip-path)">
    <g id="Ebene_1" transform="translate(1108.176 1627)">
      <g id="Group_208" data-name="Group 208" transform="translate(0 0)">
        <path id="Path_330" data-name="Path 330" d="M72.79,35.5H70.813a8.933,8.933,0,0,0-2.878-4.9,7.166,7.166,0,0,0-4.747-13.011,10.687,10.687,0,0,0-14.83-6.1,8.825,8.825,0,0,0-4.274-1.1,8.993,8.993,0,0,0-8.411,5.845A8.953,8.953,0,1,0,24.35,30.076V44.469a5.373,5.373,0,0,0,3.588,5.052V76.762a8.981,8.981,0,0,0,8.97,8.97H62.026A8.981,8.981,0,0,0,71,76.762V64.2H72.79a8.981,8.981,0,0,0,8.97-8.97V44.469A8.981,8.981,0,0,0,72.79,35.5ZM24.35,22.94a5.382,5.382,0,0,1,10.765,0,1.8,1.8,0,0,0,1.794,1.794H37.9a1.793,1.793,0,0,0,1.55-2.7,5.273,5.273,0,0,1-.75-2.684,5.389,5.389,0,0,1,5.382-5.382,5.316,5.316,0,0,1,3.154,1.048,1.793,1.793,0,0,0,2.013.068A7.114,7.114,0,0,1,60.11,20.012,1.794,1.794,0,0,0,62.532,21.4a3.585,3.585,0,1,1-1.74,5.239,1.8,1.8,0,0,0-2.763-.334,7.2,7.2,0,0,1-9.272.549,1.8,1.8,0,0,0-2.878,1.428V33.7a1.794,1.794,0,1,1-3.588,0V30.116A1.8,1.8,0,0,0,40.5,28.322H33.321a1.8,1.8,0,0,0-1.794,1.794V44.469a1.794,1.794,0,0,1-3.588,0V29.122a1.792,1.792,0,0,0-.893-1.55A5.33,5.33,0,0,1,24.35,22.94ZM67.408,76.762a5.389,5.389,0,0,1-5.382,5.382H36.909a5.389,5.389,0,0,1-5.382-5.382V49.521a5.373,5.373,0,0,0,3.588-5.052V31.91H38.7V33.7a5.382,5.382,0,0,0,10.765,0V31.282a10.83,10.83,0,0,0,9.577-1.2,7.174,7.174,0,0,0,1.518,1.012,1.765,1.765,0,0,0,1.464.818,5.389,5.389,0,0,1,5.382,5.382ZM78.173,55.233a5.389,5.389,0,0,1-5.382,5.382H71V39.086H72.79a5.389,5.389,0,0,1,5.382,5.382Z" transform="translate(-20.762 -10.381)" fill="#d30215"/>
        <path id="Path_331" data-name="Path 331" d="M48.508,62.286a1.8,1.8,0,0,0-1.794,1.794V85.609a1.794,1.794,0,1,0,3.588,0V64.08A1.8,1.8,0,0,0,48.508,62.286Z" transform="translate(-28.773 -26.404)" fill="#d30215"/>
        <path id="Path_332" data-name="Path 332" d="M61.485,62.286A1.8,1.8,0,0,0,59.69,64.08V85.609a1.794,1.794,0,0,0,3.588,0V64.08A1.8,1.8,0,0,0,61.485,62.286Z" transform="translate(-32.779 -26.404)" fill="#d30215"/>
        <path id="Path_333" data-name="Path 333" d="M74.461,62.286a1.8,1.8,0,0,0-1.794,1.794V85.609a1.794,1.794,0,1,0,3.588,0V64.08A1.8,1.8,0,0,0,74.461,62.286Z" transform="translate(-36.785 -26.404)" fill="#d30215"/>
        <path id="Path_334" data-name="Path 334" d="M66.675,21.755a1.8,1.8,0,0,1,1.794,1.794,1.794,1.794,0,1,0,3.588,0,5.389,5.389,0,0,0-5.382-5.382,1.794,1.794,0,0,0,0,3.588Z" transform="translate(-34.381 -12.784)" fill="#d30215"/>
      </g>
    </g>
  </g>
</svg>
