<svg xmlns="http://www.w3.org/2000/svg" width="18" height="18" viewBox="0 0 18 18">
  <path id="Path_566" data-name="Path 566" d="M-266.625-51.75v-1.125A1.125,1.125,0,0,1-265.5-54a1.125,1.125,0,0,1,1.125,1.125v1.125a1.125,1.125,0,0,1-1.125,1.125A1.125,1.125,0,0,1-266.625-51.75Zm7.875,1.125a1.125,1.125,0,0,0,1.125-1.125v-1.125A1.125,1.125,0,0,0-258.75-54a1.125,1.125,0,0,0-1.125,1.125v1.125A1.125,1.125,0,0,0-258.75-50.625Zm4.5,12.375H-270v-13.5h2.813a1.69,1.69,0,0,0,1.688,1.688,1.69,1.69,0,0,0,1.688-1.687h3.375a1.69,1.69,0,0,0,1.688,1.688,1.69,1.69,0,0,0,1.688-1.687h2.813v13.5Zm-1.125-10.125h-13.5v9h13.5v-9Zm2.25-2.25v13.5h-15.75V-36H-252V-50.625Zm-11.25,3.375h-2.25V-45h2.25Zm3.375,0h-2.25V-45H-261Zm3.375,0h-2.25V-45h2.25Zm-6.75,3.375h-2.25v2.25h2.25Zm3.375,0h-2.25v2.25H-261Zm3.375,0h-2.25v2.25h2.25Z" transform="translate(270 54)" fill="#b2b2b2"/>
</svg>
