<svg xmlns="http://www.w3.org/2000/svg" width="15" height="15" viewBox="0 0 15 15">
  <g id="Group_366" data-name="Group 366" transform="translate(-416 -49)">
    <rect id="Rectangle_1579" data-name="Rectangle 1579" width="3" height="3" rx="1" transform="translate(416 49)" fill="#2c2929"/>
    <rect id="Rectangle_1601" data-name="Rectangle 1601" width="3" height="3" rx="1" transform="translate(416 53)" fill="#2c2929"/>
    <rect id="Rectangle_1605" data-name="Rectangle 1605" width="3" height="3" rx="1" transform="translate(416 57)" fill="#2c2929"/>
    <rect id="Rectangle_1609" data-name="Rectangle 1609" width="3" height="3" rx="1" transform="translate(416 61)" fill="#2c2929"/>
    <rect id="Rectangle_1598" data-name="Rectangle 1598" width="3" height="3" rx="1" transform="translate(420 49)" fill="#2c2929"/>
    <rect id="Rectangle_1602" data-name="Rectangle 1602" width="3" height="3" rx="1" transform="translate(420 53)" fill="#2c2929"/>
    <rect id="Rectangle_1606" data-name="Rectangle 1606" width="3" height="3" rx="1" transform="translate(420 57)" fill="#2c2929"/>
    <rect id="Rectangle_1610" data-name="Rectangle 1610" width="3" height="3" rx="1" transform="translate(420 61)" fill="#2c2929"/>
    <rect id="Rectangle_1599" data-name="Rectangle 1599" width="3" height="3" rx="1" transform="translate(424 49)" fill="#2c2929"/>
    <rect id="Rectangle_1603" data-name="Rectangle 1603" width="3" height="3" rx="1" transform="translate(424 53)" fill="#2c2929"/>
    <rect id="Rectangle_1607" data-name="Rectangle 1607" width="3" height="3" rx="1" transform="translate(424 57)" fill="#2c2929"/>
    <rect id="Rectangle_1611" data-name="Rectangle 1611" width="3" height="3" rx="1" transform="translate(424 61)" fill="#2c2929"/>
    <rect id="Rectangle_1600" data-name="Rectangle 1600" width="3" height="3" rx="1" transform="translate(428 49)" fill="#2c2929"/>
    <rect id="Rectangle_1604" data-name="Rectangle 1604" width="3" height="3" rx="1" transform="translate(428 53)" fill="#2c2929"/>
    <rect id="Rectangle_1608" data-name="Rectangle 1608" width="3" height="3" rx="1" transform="translate(428 57)" fill="#2c2929"/>
    <rect id="Rectangle_1612" data-name="Rectangle 1612" width="3" height="3" rx="1" transform="translate(428 61)" fill="#2c2929"/>
  </g>
</svg>
