<svg xmlns="http://www.w3.org/2000/svg" width="660" height="660" viewBox="0 0 660 660">
  <g id="Group_367" data-name="Group 367" transform="translate(-877 -321)">
    <g id="Ellipse_94" data-name="Ellipse 94" transform="translate(877 321)" fill="none" stroke="#d30215" stroke-linecap="round" stroke-width="1" stroke-dasharray="3">
      <circle cx="330" cy="330" r="330" stroke="none"/>
      <circle cx="330" cy="330" r="329.5" fill="none"/>
    </g>
    <g id="Group_366" data-name="Group 366">
      <path id="Path_536" data-name="Path 536" d="M6480.853,400.489l13.472-13.189c0-.006-11.785,9.967-35.5,37.419-5.65,6.54-12.267,16.01-17.277,23.184a281.735,281.735,0,0,0-24.889,43.986" transform="translate(-5508 19)" fill="none" stroke="#ed3035" stroke-linecap="round" stroke-width="3"/>
      <path id="Path_549" data-name="Path 549" d="M6480.853,400.489l13.472-13.189c0-.006-11.785,9.967-35.5,37.419-5.65,6.54-12.267,16.01-17.277,23.184a281.735,281.735,0,0,0-24.889,43.986" transform="matrix(0.087, -0.996, 0.996, 0.087, -7.064, 7286.209)" fill="none" stroke="#ed3035" stroke-linecap="round" stroke-width="3"/>
    </g>
  </g>
</svg>
